<svg id="Layer_1" data-name="Layer 1" xmlns="http://www.w3.org/2000/svg" viewBox="0 0 255 105"><defs><style>.cls-1{fill:#46c4f2;}.cls-2{fill:#313393;}.cls-3{fill:#03aeee;}.cls-4{fill:#2e3192;}.cls-5{fill:#008cd2;}</style></defs><path class="cls-1" d="M41.24,35.75a.17.17,0,0,1-.05.12H18.34a.83.83,0,0,1-.07-.13Z"/><path class="cls-2" d="M77.12,58.71c0,1.85,0,3.71,0,5.56a1.05,1.05,0,0,1-.45,1C70.23,69.82,58.56,69.52,53,62.6c-4.05-5.06-4.51-10.79-2.2-16.66,2.2-5.59,6.72-8.32,12.57-9A17.34,17.34,0,0,1,75.76,39.7c1.5,1,1.49,1.06.51,2.59-.24.36-.47.73-.7,1.09-.89,1.37-1.67,1.58-3.08.73a13.34,13.34,0,0,0-6.1-1.92c-5.52-.35-9.69,3.15-10.15,8.64a15.08,15.08,0,0,0,.36,5.31,9.33,9.33,0,0,0,9.88,7.1,12.64,12.64,0,0,0,4.17-.88.79.79,0,0,0,.6-.87q0-1.93,0-3.87c0-.54-.17-.68-.68-.66-.93,0-1.87,0-2.8,0s-1.37-.43-1.35-1.34c0-1.09-.37-2.47.16-3.18s2-.18,3-.2c2.23,0,4.46,0,6.69,0,.68,0,.83.22.82.84C77.09,54.94,77.12,56.83,77.12,58.71Z"/><path class="cls-3" d="M143.22,52.43c0-4.73,0-9.46,0-14.19,0-1,.29-1.13,1.16-1.12,5.89,0,11.79,0,17.68,0,.74,0,1.07.13,1,1a28.11,28.11,0,0,0,0,3.18c0,.68-.18.9-.89.89-3.79,0-7.59,0-11.38,0-.8,0-1.1.14-1.07,1,.07,1.95.06,3.9,0,5.85,0,.8.16,1.07,1,1.06,2.8-.06,5.6,0,8.39,0,.8,0,1,.22,1,1a24.69,24.69,0,0,0,0,3c0,.69-.18.9-.88.89-2.8,0-5.6,0-8.39,0-1,0-1.14.3-1.12,1.16.06,2,.06,3.91,0,5.86,0,.83.14,1.12,1.07,1.11,3.76-.06,7.52,0,11.28-.05.81,0,1,.24,1,1-.06,1.08,0,2.18,0,3.27,0,.53-.11.75-.71.75-6.12,0-12.25,0-18.37,0-.79,0-.74-.4-.74-.92Z"/><path class="cls-1" d="M35.66,62c0,1.59,0,3.18,0,4.76s-.77,2.47-2.42,2.47q-10.62,0-21.26,0c-1.78,0-2.49-.72-2.49-2.47V45.45c0-1.74.67-2.37,2.43-2.38l4.79,0h0l0,0c-.18,5.72-.06,11.44-.05,17.16A1.72,1.72,0,0,0,18.44,62c5.73,0,11.45,0,17.17,0A.06.06,0,0,1,35.66,62Z"/><path class="cls-4" d="M18.34,35.88H41.19a2,2,0,0,1,1.65,2.25V59.76c0,1.49-.76,2.22-2.29,2.23s-3.26,0-4.89,0a.06.06,0,0,0,0-.08q0-8.24,0-16.46c0-1.71-.69-2.39-2.41-2.39H16.76l0,0h0c0-1.68,0-3.35,0-5A1.94,1.94,0,0,1,18.34,35.88Z"/><path class="cls-2" d="M92.88,57.9c-2.06,0-4.12,0-6.19,0-.57,0-.74.16-.67.74.5,4,3.79,6.05,7.68,4.83a18.87,18.87,0,0,0,2.62-1.21,1.75,1.75,0,0,1,2.59.57l.19.23c1.39,1.74,1.39,1.74-.4,3-4.12,3-12,3.21-15.93-1.26S78.48,50.6,85.44,46.92c4-2.12,9.48-1.53,12.41,1.49,2.29,2.36,2.84,5.29,2.53,8.44-.08.83-.65,1.06-1.41,1.06C96.94,57.89,94.91,57.9,92.88,57.9Zm-2.3-3.52h3.89c.4,0,.7,0,.68-.56a4.21,4.21,0,0,0-2.68-3.73,4.71,4.71,0,0,0-6.29,3.6c-.13.6,0,.72.61.7C88.05,54.36,89.32,54.38,90.58,54.38Z"/><path class="cls-2" d="M121.36,60.32c0,2.28,0,4.57,0,6.85,0,.62-.17.83-.78.76a11.28,11.28,0,0,0-1.3,0c-2.14,0-2.18,0-2.9-1.93-.31-.83-.59-.32-.88-.07a9.52,9.52,0,0,1-8.86,2,5.13,5.13,0,0,1-4-4.31A5.36,5.36,0,0,1,104.75,58c2.38-1.76,5.18-2.28,8-2.59.43-.05.86-.07,1.29-.1,1.54-.13,1.54-.13,1.47-1.61-.12-2.72-1.89-4-4.73-3.39a10.57,10.57,0,0,0-2.75,1.16c-1.81,1-2.76.7-3.76-1.06-.81-1.43-.81-1.43.59-2.41a13.32,13.32,0,0,1,9.75-2.27c4,.55,6.64,3.81,6.7,8C121.39,56,121.36,58.14,121.36,60.32Zm-5.79.42c0-2,0-2-1.78-1.79-.23,0-.46,0-.69,0a8.92,8.92,0,0,0-3.87,1.18,2.21,2.21,0,0,0-1,2.41,2,2,0,0,0,1.79,1.6,5.39,5.39,0,0,0,3.65-.6C114.93,62.92,116,62.16,115.57,60.74Z"/><path class="cls-3" d="M206.9,60.22c0,2.31,0,4.63,0,7,0,.62-.19.82-.79.76a11.28,11.28,0,0,0-1.3,0c-2.12,0-2.15,0-2.9-1.93-.33-.87-.64-.26-.9,0a9.59,9.59,0,0,1-8.09,2.19A5.34,5.34,0,0,1,188.27,64a5.42,5.42,0,0,1,2.29-6.17,16.34,16.34,0,0,1,7.81-2.41c.66-.06,1.33-.12,2-.12s.76-.25.76-.84c0-3.56-2.08-5.1-5.47-3.9a23.27,23.27,0,0,0-2.43,1.14,2.17,2.17,0,0,1-3.19-1c-1-1.74-1-1.76.65-2.87a13.4,13.4,0,0,1,9.61-2.11,7.71,7.71,0,0,1,6.57,7.63c.06,2.28,0,4.56,0,6.85Zm-5.79.59c0-2,0-2-1.78-1.86-.2,0-.4,0-.6,0a8.7,8.7,0,0,0-4,1.25,2.16,2.16,0,0,0-.84,2.45,1.92,1.92,0,0,0,1.76,1.5,5.51,5.51,0,0,0,3.83-.69C200.53,62.85,201.53,62.13,201.11,60.81Z"/><path class="cls-3" d="M164.45,67.91c1.3-2,2.51-3.82,3.73-5.66,1-1.57,2-3.18,3.15-4.7a1.37,1.37,0,0,0-.05-1.89c-2-2.91-4-5.86-6-8.8a1.15,1.15,0,0,1-.35-.79c2,0,4,0,6,0,.56,0,.83.47,1.1.9l3.51,5.66c.17.27.28.61.56.75,1.29-2.09,2.58-4.16,3.83-6.26a2,2,0,0,1,1.94-1.1c1.61,0,3.23,0,5,0-1.66,2.41-3.22,4.66-4.78,6.91-.62.9-1.21,1.83-1.88,2.69a1.07,1.07,0,0,0,0,1.48c2.16,3.26,4.26,6.55,6.38,9.83a1.56,1.56,0,0,1,.43,1c-2,0-3.91,0-5.86,0-.7,0-1.07-.59-1.41-1.14q-1.78-3-3.58-6c-.18-.31-.39-.6-.54-.84-1.51,2.39-3,4.78-4.52,7.15a1.45,1.45,0,0,1-1.19.8C168.19,67.93,166.4,67.91,164.45,67.91Z"/><path class="cls-3" d="M233.48,57c0-2.25,0-4.11,0-6,0-.57-.11-.8-.76-.8-2.46,0-2.42-.06-2.48-2.5,0-.81.25-1.17,1-1.15,2.13.06,3-1,3.13-3.06a22.78,22.78,0,0,1,.6-2.91,1.26,1.26,0,0,1,1.4-1.12c.8,0,1.6,0,2.39,0,.56,0,.67.2.66.69,0,1.73,0,3.45,0,5.17,0,.64.17.85.83.83,1.4-.05,2.8,0,4.19,0,.52,0,.72.16.71.68,0,.93,0,1.86,0,2.78,0,.56-.24.65-.72.64-1.43,0-2.86,0-4.29,0-.58,0-.73.18-.72.73,0,3.54,0,7.08,0,10.63,0,1.73,1.18,2.5,2.74,1.72a1.3,1.3,0,0,1,2,.64,16.9,16.9,0,0,0,1.12,1.76c.31.43.34.7-.17,1A9.47,9.47,0,0,1,237.52,68a5.09,5.09,0,0,1-3.88-4.44A52.7,52.7,0,0,1,233.48,57Z"/><path class="cls-3" d="M216.38,56.9a11,11,0,0,0,.5,3.54,4.9,4.9,0,0,0,7.7,2.41c.3-.21.58-.44.9-.63a1.46,1.46,0,0,1,2.11.34l.57.69c1.17,1.5,1.16,1.48-.38,2.71C224,69,216,69.62,212.32,64.14c-2.94-4.33-2.66-11.43.67-15.13,3.76-4.18,11.33-4.52,15.46-.71.42.38.56.67.14,1.14s-.66.9-1,1.35c-.78,1-1.34,1.14-2.47.46a6.64,6.64,0,0,0-3.75-1.16,4.73,4.73,0,0,0-4.68,4A13,13,0,0,0,216.38,56.9Z"/><path class="cls-2" d="M131.48,49.38a16,16,0,0,1,2.22-2.58,5.22,5.22,0,0,1,5.05-.93.94.94,0,0,1,.76,1.17c-.16,1.11-.26,2.23-.34,3.35,0,.81-.49,1.11-1.25,1l-.79-.12a4.29,4.29,0,0,0-5.27,4.5c0,3.74,0,7.48,0,11.22,0,.76-.22,1-.95.92-1.43-.06-2.87,0-4.3,0-.56,0-.72-.16-.72-.72q0-10.21,0-20.45c0-.54.13-.76.72-.73,1,0,1.93,0,2.89,0a1.45,1.45,0,0,1,1.65,1.45C131.25,48.06,131.36,48.63,131.48,49.38Z"/><path class="cls-5" d="M16.76,43.07H33.22c1.72,0,2.41.68,2.41,2.39q0,8.24,0,16.46c-5.72,0-11.44,0-17.17,0a1.72,1.72,0,0,1-1.73-1.73C16.7,54.51,16.58,48.79,16.76,43.07Z"/></svg>